<svg width="187" height="48" viewBox="0 0 187 48" fill="none" xmlns="http://www.w3.org/2000/svg">
<g clip-path="url(#clip0)">
<g filter="url(#filter0_d)">
<path d="M7.33342 1.35989C3.72645 2.38436 1.39253 5.21952 0.708856 9.34123C0.402382 11.1757 0.449532 36.9543 0.756006 38.8841C0.873881 39.7417 1.29823 41.1236 1.69901 41.9575C3.41997 45.698 6.64974 47.0798 11.577 46.1745C16.2683 45.3168 19.3566 42.5293 20.7004 37.9072C21.0069 36.8828 21.1012 34.9768 21.1719 28.425C21.2426 23.9221 21.1955 20.1816 21.0777 20.0862C20.9833 19.9909 18.7672 20.0386 16.174 20.1577L11.4591 20.4198L11.3883 23.5885L11.3176 26.7572L12.9207 26.7096L14.5238 26.6619V31.4031C14.5002 34.6194 14.406 36.4301 14.1937 37.0496C13.3686 39.4559 9.59661 40.2659 8.18212 38.3362C7.68704 37.669 7.68704 37.4307 7.61632 24.0412C7.56917 15.1307 7.61632 10.1274 7.78134 9.57948C8.18212 8.19763 9.21942 7.36377 10.681 7.26846C12.2134 7.14934 13.3686 7.69731 14.0052 8.81708C14.3588 9.43652 14.4767 10.2466 14.5945 12.6767L14.7124 15.774H17.0935C18.4136 15.774 19.8753 15.7025 20.3704 15.631L21.2426 15.4643V13.0579C21.2426 9.6986 20.889 7.84026 19.9225 5.81515C18.9559 3.81386 17.565 2.55114 15.4197 1.69344C13.6279 1.00252 9.26657 0.835745 7.33342 1.35989Z" fill="#FF0000"/>
</g>
<g filter="url(#filter1_d)">
<path d="M30.5548 2.0031C29.8711 5.05268 23.553 43.9111 23.718 44.0778C23.8124 44.1731 28.8338 43.6966 29.6353 43.5299C30.0833 43.4346 30.1775 43.0534 30.6727 39.4796L31.2149 35.5485L31.9456 35.4294C33.1244 35.2388 39.4425 34.81 39.5604 34.9053C39.6075 34.9767 39.914 36.6445 40.2205 38.6457C40.527 40.6471 40.8334 42.3386 40.9042 42.3863C40.9985 42.4816 47.6937 41.9812 47.8352 41.8621C47.906 41.7907 45.3834 27.0193 42.6016 11.2472L40.9042 1.59807L35.7884 1.5266L30.6727 1.47894L30.5548 2.0031ZM37.1558 19.3476C37.9809 24.6367 38.641 28.9967 38.6174 29.0444C38.5703 29.0682 37.1086 29.1635 35.3405 29.2588C32.2522 29.4256 32.1107 29.4017 32.205 28.9729C32.2757 28.7347 32.9594 24.327 33.7374 19.2285C34.5389 14.1061 35.2462 9.72236 35.317 9.46029C35.5055 8.86466 35.3169 7.81637 37.1558 19.3476Z" fill="#FF0000"/>
</g>
<g filter="url(#filter2_d)">
<path d="M50.9473 21.611V41.7431L52.7862 41.6001C53.7763 41.5524 55.1672 41.4333 55.8509 41.3618L57.0768 41.2427L57.1004 27.3767L57.1239 13.5106L57.5719 15.774C57.8312 17.0128 58.9392 23.1834 60.0473 29.4733C61.1552 35.763 62.0982 40.933 62.1454 40.9806C62.1926 41.0283 63.6778 40.9806 65.4694 40.8615L68.7228 40.6709L69.8308 33.6426C70.4438 29.783 71.4811 23.4932 72.1176 19.7051L73.2964 12.7958L73.3199 26.6619L73.3435 40.5518H75.2059C76.2196 40.5518 77.7049 40.4804 78.5064 40.4088L79.9445 40.2421V20.8724V1.479H75.1352C70.3495 1.479 70.326 1.479 70.2081 2.00315C70.0902 2.50347 68.8407 9.79389 66.554 23.3979C65.8939 27.2337 65.5873 28.5441 65.4931 28.0437C65.3987 27.6388 64.3143 21.7063 63.0884 14.8209C61.8389 7.93554 60.7781 2.12227 60.7074 1.88402C60.5895 1.52665 60.1415 1.479 55.7566 1.479H50.9473V21.611Z" fill="#FF0000"/>
</g>
<g filter="url(#filter3_d)">
<path d="M84.895 20.8963V40.3135H94.3251H103.755V37.3354V34.3573H97.8614H91.9675V28.6394V22.9214H96.6826H101.421L101.35 20.1101L101.279 17.3225L96.6352 17.2511L91.9675 17.2034V12.0811V6.95872H97.8614H103.755V4.21886V1.479H94.3251H84.895V20.8963Z" fill="#FF0000"/>
</g>
<g filter="url(#filter4_d)">
<path d="M107.999 20.8724V40.266L108.73 40.4088C109.13 40.4804 110.733 40.5518 112.266 40.5518H115.071V32.2369V23.8982L119.433 24.0412L123.794 24.1842V21.3013V18.3947L119.503 18.347L115.189 18.2755L115.118 12.6052L115.071 6.95872H120.729H126.387V4.21886V1.479H117.193H107.999V20.8724Z" fill="#FF0000"/>
</g>
<g filter="url(#filter5_d)">
<path d="M129.451 21.3728C129.451 32.3084 129.522 41.2666 129.64 41.2666C130.819 41.2904 146.237 42.4578 147.086 42.6007L147.841 42.7198V39.4797V36.2634H147.203C146.827 36.2634 144.375 36.0966 141.711 35.906C139.047 35.7153 136.807 35.5486 136.713 35.5486C136.595 35.5486 136.524 27.877 136.524 18.5138V1.479H132.988H129.451V21.3728Z" fill="#FF0000"/>
</g>
<g filter="url(#filter6_d)">
<path d="M150.905 22.2067C150.905 33.595 150.999 42.9343 151.093 42.9343C151.542 42.9343 156.492 43.4346 157.105 43.5299L157.741 43.6252V22.5641V1.479H154.323H150.905V22.2067Z" fill="#FF0000"/>
</g>
<g filter="url(#filter7_d)">
<path d="M161.749 1.57431C161.749 1.62196 162.645 4.17122 163.73 7.24463C164.814 10.2943 166.417 14.8448 167.29 17.3702L168.869 21.9446L165.521 31.4269C163.683 36.6445 161.962 41.5287 161.702 42.291C161.302 43.387 161.255 43.7206 161.49 43.8873C161.82 44.0779 167.596 44.7212 167.737 44.5782C167.785 44.5306 168.963 40.9569 170.354 36.6445C171.745 32.3323 172.971 28.5203 173.113 28.1867L173.348 27.5672L173.702 28.5203C174.056 29.5447 178.275 43.6014 178.7 45.2215L178.959 46.1983L182.543 46.6987C184.499 46.9845 186.15 47.1752 186.22 47.1275C186.362 46.9607 182.732 35.0483 179.006 23.6361L178.676 22.5402L182.237 12.1288C184.193 6.41076 185.796 1.66961 185.796 1.59813C185.796 1.52665 184.335 1.479 182.566 1.479H179.313L176.743 9.24592C175.329 13.5106 174.103 16.8937 174.009 16.7984C173.938 16.7031 172.759 13.2008 171.415 9.0315L168.963 1.479H165.356C163.377 1.479 161.749 1.52665 161.749 1.57431Z" fill="#FF0000"/>
</g>
</g>
<defs>
<filter id="filter0_d" x="-3.49878" y="1.05188" width="28.7414" height="53.3909" filterUnits="userSpaceOnUse" color-interpolation-filters="sRGB">
<feFlood flood-opacity="0" result="BackgroundImageFix"/>
<feColorMatrix in="SourceAlpha" type="matrix" values="0 0 0 0 0 0 0 0 0 0 0 0 0 0 0 0 0 0 127 0"/>
<feOffset dy="4"/>
<feGaussianBlur stdDeviation="2"/>
<feColorMatrix type="matrix" values="0 0 0 0 0 0 0 0 0 0 0 0 0 0 0 0 0 0 0.25 0"/>
<feBlend mode="normal" in2="BackgroundImageFix" result="effect1_dropShadow"/>
<feBlend mode="normal" in="SourceGraphic" in2="effect1_dropShadow" result="shape"/>
</filter>
<filter id="filter1_d" x="19.7148" y="1.47894" width="32.1219" height="50.6114" filterUnits="userSpaceOnUse" color-interpolation-filters="sRGB">
<feFlood flood-opacity="0" result="BackgroundImageFix"/>
<feColorMatrix in="SourceAlpha" type="matrix" values="0 0 0 0 0 0 0 0 0 0 0 0 0 0 0 0 0 0 127 0"/>
<feOffset dy="4"/>
<feGaussianBlur stdDeviation="2"/>
<feColorMatrix type="matrix" values="0 0 0 0 0 0 0 0 0 0 0 0 0 0 0 0 0 0 0.25 0"/>
<feBlend mode="normal" in2="BackgroundImageFix" result="effect1_dropShadow"/>
<feBlend mode="normal" in="SourceGraphic" in2="effect1_dropShadow" result="shape"/>
</filter>
<filter id="filter2_d" x="46.9473" y="1.479" width="36.9972" height="48.2641" filterUnits="userSpaceOnUse" color-interpolation-filters="sRGB">
<feFlood flood-opacity="0" result="BackgroundImageFix"/>
<feColorMatrix in="SourceAlpha" type="matrix" values="0 0 0 0 0 0 0 0 0 0 0 0 0 0 0 0 0 0 127 0"/>
<feOffset dy="4"/>
<feGaussianBlur stdDeviation="2"/>
<feColorMatrix type="matrix" values="0 0 0 0 0 0 0 0 0 0 0 0 0 0 0 0 0 0 0.25 0"/>
<feBlend mode="normal" in2="BackgroundImageFix" result="effect1_dropShadow"/>
<feBlend mode="normal" in="SourceGraphic" in2="effect1_dropShadow" result="shape"/>
</filter>
<filter id="filter3_d" x="80.895" y="1.479" width="26.8601" height="46.8345" filterUnits="userSpaceOnUse" color-interpolation-filters="sRGB">
<feFlood flood-opacity="0" result="BackgroundImageFix"/>
<feColorMatrix in="SourceAlpha" type="matrix" values="0 0 0 0 0 0 0 0 0 0 0 0 0 0 0 0 0 0 127 0"/>
<feOffset dy="4"/>
<feGaussianBlur stdDeviation="2"/>
<feColorMatrix type="matrix" values="0 0 0 0 0 0 0 0 0 0 0 0 0 0 0 0 0 0 0.25 0"/>
<feBlend mode="normal" in2="BackgroundImageFix" result="effect1_dropShadow"/>
<feBlend mode="normal" in="SourceGraphic" in2="effect1_dropShadow" result="shape"/>
</filter>
<filter id="filter4_d" x="103.999" y="1.479" width="26.3883" height="47.0728" filterUnits="userSpaceOnUse" color-interpolation-filters="sRGB">
<feFlood flood-opacity="0" result="BackgroundImageFix"/>
<feColorMatrix in="SourceAlpha" type="matrix" values="0 0 0 0 0 0 0 0 0 0 0 0 0 0 0 0 0 0 127 0"/>
<feOffset dy="4"/>
<feGaussianBlur stdDeviation="2"/>
<feColorMatrix type="matrix" values="0 0 0 0 0 0 0 0 0 0 0 0 0 0 0 0 0 0 0.25 0"/>
<feBlend mode="normal" in2="BackgroundImageFix" result="effect1_dropShadow"/>
<feBlend mode="normal" in="SourceGraphic" in2="effect1_dropShadow" result="shape"/>
</filter>
<filter id="filter5_d" x="125.451" y="1.479" width="26.3893" height="49.2408" filterUnits="userSpaceOnUse" color-interpolation-filters="sRGB">
<feFlood flood-opacity="0" result="BackgroundImageFix"/>
<feColorMatrix in="SourceAlpha" type="matrix" values="0 0 0 0 0 0 0 0 0 0 0 0 0 0 0 0 0 0 127 0"/>
<feOffset dy="4"/>
<feGaussianBlur stdDeviation="2"/>
<feColorMatrix type="matrix" values="0 0 0 0 0 0 0 0 0 0 0 0 0 0 0 0 0 0 0.25 0"/>
<feBlend mode="normal" in2="BackgroundImageFix" result="effect1_dropShadow"/>
<feBlend mode="normal" in="SourceGraphic" in2="effect1_dropShadow" result="shape"/>
</filter>
<filter id="filter6_d" x="146.905" y="1.479" width="14.8362" height="50.1462" filterUnits="userSpaceOnUse" color-interpolation-filters="sRGB">
<feFlood flood-opacity="0" result="BackgroundImageFix"/>
<feColorMatrix in="SourceAlpha" type="matrix" values="0 0 0 0 0 0 0 0 0 0 0 0 0 0 0 0 0 0 127 0"/>
<feOffset dy="4"/>
<feGaussianBlur stdDeviation="2"/>
<feColorMatrix type="matrix" values="0 0 0 0 0 0 0 0 0 0 0 0 0 0 0 0 0 0 0.25 0"/>
<feBlend mode="normal" in2="BackgroundImageFix" result="effect1_dropShadow"/>
<feBlend mode="normal" in="SourceGraphic" in2="effect1_dropShadow" result="shape"/>
</filter>
<filter id="filter7_d" x="157.348" y="1.479" width="32.8768" height="53.6558" filterUnits="userSpaceOnUse" color-interpolation-filters="sRGB">
<feFlood flood-opacity="0" result="BackgroundImageFix"/>
<feColorMatrix in="SourceAlpha" type="matrix" values="0 0 0 0 0 0 0 0 0 0 0 0 0 0 0 0 0 0 127 0"/>
<feOffset dy="4"/>
<feGaussianBlur stdDeviation="2"/>
<feColorMatrix type="matrix" values="0 0 0 0 0 0 0 0 0 0 0 0 0 0 0 0 0 0 0.25 0"/>
<feBlend mode="normal" in2="BackgroundImageFix" result="effect1_dropShadow"/>
<feBlend mode="normal" in="SourceGraphic" in2="effect1_dropShadow" result="shape"/>
</filter>
<clipPath id="clip0">
<rect width="187" height="47" fill="white" transform="translate(0 0.5)"/>
</clipPath>
</defs>
</svg>
