<svg width="187" height="47" viewBox="0 0 187 47" fill="none" xmlns="http://www.w3.org/2000/svg">
<path d="M7.33353 0.859892C3.72657 1.88436 1.39265 4.71952 0.708974 8.84123C0.402499 10.6757 0.449649 36.4543 0.756124 38.3841C0.873999 39.2417 1.29835 40.6236 1.69912 41.4575C3.42009 45.198 6.64986 46.5798 11.5771 45.6745C16.2684 44.8168 19.3567 42.0293 20.7005 37.4072C21.007 36.3828 21.1013 34.4768 21.172 27.925C21.2427 23.4221 21.1957 19.6816 21.0778 19.5862C20.9834 19.4909 18.7674 19.5386 16.1741 19.6577L11.4592 19.9198L11.3884 23.0885L11.3177 26.2572L12.9208 26.2096L14.5239 26.1619V30.9031C14.5003 34.1194 14.4061 35.9301 14.1939 36.5496C13.3687 38.9559 9.59673 39.7659 8.18224 37.8362C7.68716 37.169 7.68716 36.9307 7.61644 23.5412C7.56929 14.6307 7.61644 9.62741 7.78146 9.07948C8.18224 7.69763 9.21954 6.86377 10.6811 6.76846C12.2135 6.64934 13.3687 7.19731 14.0053 8.31708C14.3589 8.93652 14.4768 9.74661 14.5947 12.1767L14.7125 15.274H17.0936C18.4137 15.274 19.8754 15.2025 20.3705 15.131L21.2427 14.9643V12.5579C21.2427 9.1986 20.8891 7.34026 19.9226 5.31515C18.956 3.31386 17.5651 2.05114 15.4198 1.19344C13.628 0.502519 9.26669 0.335745 7.33353 0.859892Z" fill="#FF0000"/>
<path d="M30.5549 1.50316C29.8712 4.55274 23.5531 43.4111 23.7181 43.5779C23.8124 43.6732 28.8339 43.1967 29.6354 43.0299C30.0834 42.9346 30.1776 42.5535 30.6727 38.9797L31.215 35.0486L31.9457 34.9295C33.1245 34.7389 39.4426 34.31 39.5605 34.4053C39.6076 34.4768 39.9141 36.1445 40.2206 38.1458C40.5271 40.1472 40.8335 41.8387 40.9042 41.8863C40.9986 41.9817 47.6938 41.4813 47.8353 41.3622C47.906 41.2908 45.3835 26.5193 42.6017 10.7472L40.9042 1.09813L35.7884 1.02666L30.6727 0.979004L30.5549 1.50316ZM37.1559 18.8477C37.981 24.1368 38.6411 28.4968 38.6175 28.5444C38.5704 28.5682 37.1087 28.6635 35.3406 28.7589C32.2523 28.9256 32.1108 28.9017 32.2051 28.4729C32.2758 28.2347 32.9595 23.8271 33.7375 18.7286C34.539 13.6062 35.2462 9.22242 35.317 8.96035C35.5056 8.36473 35.317 7.31643 37.1559 18.8477Z" fill="#FF0000"/>
<path d="M50.9472 21.111V41.2431L52.7861 41.1001C53.7762 41.0524 55.1671 40.9333 55.8508 40.8618L57.0767 40.7427L57.1003 26.8767L57.1239 13.0106L57.5718 15.274C57.8311 16.5128 58.9391 22.6834 60.0472 28.9733C61.1551 35.263 62.0981 40.433 62.1453 40.4806C62.1925 40.5283 63.6777 40.4806 65.4693 40.3615L68.7227 40.1709L69.8307 33.1426C70.4437 29.283 71.481 22.9932 72.1175 19.2051L73.2963 12.2958L73.3198 26.1619L73.3434 40.0518H75.2058C76.2195 40.0518 77.7048 39.9804 78.5063 39.9088L79.9444 39.7421V20.3724V0.979004H75.1351C70.3494 0.979004 70.3259 0.979004 70.208 1.50315C70.0901 2.00347 68.8406 9.29389 66.5539 22.8979C65.8938 26.7337 65.5872 28.0441 65.493 27.5437C65.3986 27.1388 64.3142 21.2063 63.0883 14.3209C61.8389 7.43554 60.778 1.62227 60.7073 1.38402C60.5894 1.02665 60.1414 0.979004 55.7565 0.979004H50.9472V21.111Z" fill="#FF0000"/>
<path d="M84.8951 20.3963V39.8135H94.3252H103.755V36.8354V33.8573H97.8615H91.9676V28.1394V22.4214H96.6827H101.421L101.35 19.6101L101.28 16.8225L96.6353 16.7511L91.9676 16.7034V11.5811V6.45872H97.8615H103.755V3.71886V0.979004H94.3252H84.8951V20.3963Z" fill="#FF0000"/>
<path d="M107.999 20.3724V39.766L108.73 39.9088C109.13 39.9804 110.733 40.0518 112.266 40.0518H115.071V31.7369V23.3982L119.433 23.5412L123.794 23.6842V20.8013V17.8947L119.503 17.847L115.189 17.7755L115.119 12.1052L115.071 6.45872H120.729H126.387V3.71886V0.979004H117.193H107.999V20.3724Z" fill="#FF0000"/>
<path d="M129.451 20.8728C129.451 31.8084 129.522 40.7666 129.64 40.7666C130.819 40.7904 146.237 41.9578 147.086 42.1007L147.841 42.2198V38.9797V35.7634H147.203C146.827 35.7634 144.375 35.5966 141.711 35.406C139.047 35.2153 136.807 35.0486 136.713 35.0486C136.595 35.0486 136.524 27.377 136.524 18.0138V0.979004H132.988H129.451V20.8728Z" fill="#FF0000"/>
<path d="M150.905 21.7067C150.905 33.095 150.999 42.4343 151.093 42.4343C151.542 42.4343 156.492 42.9346 157.105 43.0299L157.741 43.1252V22.0641V0.979004H154.323H150.905V21.7067Z" fill="#FF0000"/>
<path d="M161.749 1.07431C161.749 1.12196 162.645 3.67122 163.73 6.74463C164.814 9.79426 166.417 14.3448 167.29 16.8702L168.869 21.4446L165.521 30.9269C163.683 36.1445 161.962 41.0287 161.702 41.791C161.302 42.887 161.254 43.2206 161.49 43.3873C161.82 43.5779 167.596 44.2212 167.737 44.0782C167.785 44.0306 168.963 40.4569 170.354 36.1445C171.745 31.8323 172.971 28.0203 173.113 27.6867L173.348 27.0672L173.702 28.0203C174.056 29.0447 178.275 43.1014 178.7 44.7215L178.959 45.6983L182.543 46.1987C184.499 46.4845 186.15 46.6752 186.22 46.6275C186.362 46.4607 182.732 34.5483 179.006 23.1361L178.676 22.0402L182.237 11.6288C184.193 5.91076 185.796 1.16961 185.796 1.09813C185.796 1.02665 184.335 0.979004 182.566 0.979004H179.313L176.743 8.74592C175.329 13.0106 174.103 16.3937 174.009 16.2984C173.938 16.2031 172.759 12.7008 171.415 8.5315L168.963 0.979004H165.356C163.377 0.979004 161.749 1.02665 161.749 1.07431Z" fill="#FF0000"/>
</svg>
